<?xml version="1.0" encoding="utf-8"?>
<!-- Generator: Adobe Illustrator 24.1.2, SVG Export Plug-In . SVG Version: 6.00 Build 0)  -->
<svg version="1.1" id="Capa_1" xmlns="http://www.w3.org/2000/svg" xmlns:xlink="http://www.w3.org/1999/xlink" x="0px" y="0px"
	 viewBox="0 0 20.4 20.4" style="enable-background:new 0 0 20.4 20.4;" xml:space="preserve">
<style type="text/css">
	.st0{fill:#041C43;}
</style>
<path class="st0" d="M15.8,4.9c-1.4-1.4-3.4-2.3-5.6-2.3c-4.4,0-8,3.6-8,8c0,4.4,3.6,8,8,8c4.4,0,8-3.6,8-8
	C18.2,8.3,17.3,6.3,15.8,4.9z M15.1,15.4c-1.3,1.3-3,2-4.9,2s-3.6-0.8-4.9-2c-1.3-1.3-2-3-2-4.9c0-1.9,0.8-3.6,2-4.9
	c1.3-1.3,3-2,4.9-2c1.9,0,3.6,0.8,4.9,2c1.3,1.3,2,3,2,4.9C17.1,12.5,16.3,14.2,15.1,15.4z"/>
<g>
	<path class="st0" d="M10.4,13.6c0-0.8-0.7-1.4-1.5-1.4c-0.8,0-1.5,0.6-1.5,1.4c0,0.8,0.7,1.4,1.5,1.4C9.7,15,10.4,14.4,10.4,13.6z"
		/>
	<path class="st0" d="M10.8,4.7v8.9l0,0.3c-0.1,1.7-1.6,1.6-2.2,1.6c4.4,2.4,4.3-1.9,4.3-1.9l0-9.2C11.9,4.3,10.8,4.7,10.8,4.7z"/>
</g>
</svg>
