<?xml version="1.0" encoding="utf-8"?>
<!-- Generator: Adobe Illustrator 24.1.2, SVG Export Plug-In . SVG Version: 6.00 Build 0)  -->
<svg version="1.1" id="Capa_1" xmlns="http://www.w3.org/2000/svg" xmlns:xlink="http://www.w3.org/1999/xlink" x="0px" y="0px"
	 viewBox="0 0 64.3 40.4" style="enable-background:new 0 0 64.3 40.4;" xml:space="preserve">
<style type="text/css">
	.st0{fill:#FFFFFF;}
	.st1{fill:#041C43;}
</style>
<path class="st0" d="M18.8,14.2c-1.4-1.4-3.4-2.3-5.6-2.3c-4.4,0-8,3.6-8,8c0,4.4,3.6,8,8,8c4.4,0,8-3.6,8-8
	C21.1,17.6,20.2,15.6,18.8,14.2z M18.1,24.7c-1.3,1.3-3,2-4.9,2c-1.9,0-3.6-0.8-4.9-2c-1.3-1.3-2-3-2-4.9c0-1.9,0.8-3.6,2-4.9
	c1.3-1.3,3-2,4.9-2c1.9,0,3.6,0.8,4.9,2c1.3,1.3,2,3,2,4.9C20.1,21.8,19.3,23.5,18.1,24.7z"/>
<path class="st0" d="M20.1,19.8c0,2-0.8,3.7-2,4.9c-1.3,1.3-3,2-4.9,2c-1.9,0-3.6-0.8-4.9-2c-1.3-1.3-2-3-2-4.9c0-1.9,0.8-3.6,2-4.9
	c1.3-1.3,3-2,4.9-2c1.9,0,3.6,0.8,4.9,2C19.4,16.2,20.1,17.9,20.1,19.8z"/>
<path class="st1" d="M12.5,23.5c0-0.8-0.7-1.4-1.5-1.4s-1.5,0.6-1.5,1.4s0.7,1.4,1.5,1.4C11.9,24.9,12.5,24.3,12.5,23.5z"/>
<path class="st1" d="M13,14.6v8.9v0.3c-0.1,1.7-1.6,1.6-2.2,1.6c4.4,2.4,4.3-1.9,4.3-1.9v-9.2C14,14.2,13,14.6,13,14.6z"/>
<g>
	<path class="st0" d="M29.4,20c0.8,0.2,1.4,0.4,1.7,0.7c0.5,0.4,0.7,0.9,0.7,1.5c0,0.7-0.3,1.2-0.8,1.6c-0.6,0.5-1.6,0.8-2.8,0.8
		h-4.4v-0.2c0.4,0,0.7,0,0.8-0.1c0.1-0.1,0.2-0.2,0.3-0.3c0.1-0.1,0.1-0.4,0.1-0.9v-5.6c0-0.5,0-0.8-0.1-0.9s-0.2-0.2-0.3-0.3
		c-0.1-0.1-0.4-0.1-0.8-0.1V16H28c1,0,1.7,0.1,2.1,0.3c0.4,0.2,0.7,0.4,1,0.8c0.2,0.4,0.4,0.7,0.4,1.1S31.3,19,31,19.3
		S30.2,19.8,29.4,20z M27.1,20.4v2.8v0.3c0,0.2,0.1,0.4,0.2,0.5s0.3,0.2,0.5,0.2c0.3,0,0.6-0.1,0.9-0.2c0.3-0.2,0.5-0.4,0.7-0.7
		c0.2-0.3,0.2-0.6,0.2-1s-0.1-0.8-0.2-1.1c-0.2-0.3-0.4-0.5-0.7-0.7C28.3,20.4,27.8,20.3,27.1,20.4z M27.1,19.9
		c0.6,0,1.1-0.1,1.4-0.2s0.5-0.3,0.7-0.6c0.2-0.2,0.2-0.6,0.2-1s-0.1-0.7-0.2-0.9c-0.2-0.2-0.4-0.4-0.7-0.6
		c-0.3-0.1-0.7-0.2-1.4-0.2V19.9z"/>
	<path class="st0" d="M36.5,22.1h-3.1L33.1,23c-0.1,0.3-0.2,0.5-0.2,0.7s0.1,0.4,0.3,0.5c0.1,0.1,0.4,0.1,0.9,0.2v0.2h-2.9v-0.2
		c0.3,0,0.6-0.2,0.8-0.4c0.2-0.2,0.4-0.7,0.7-1.3l3.1-6.9h0.1l3.1,7.1c0.3,0.7,0.5,1.1,0.7,1.3c0.1,0.1,0.4,0.2,0.6,0.2v0.2h-4.2
		v-0.2h0.2c0.3,0,0.6,0,0.7-0.1c0.1-0.1,0.1-0.2,0.1-0.3c0-0.1,0-0.2,0-0.2s-0.1-0.2-0.2-0.5L36.5,22.1z M36.3,21.7l-1.3-3l-1.3,3
		H36.3z"/>
	<path class="st0" d="M43.3,15.9l4.3,5.3v-3.7c0-0.5-0.1-0.9-0.2-1.1c-0.2-0.2-0.6-0.4-1-0.4v-0.2h2.9V16c-0.4,0-0.6,0.1-0.7,0.2
		c-0.1,0.1-0.2,0.2-0.3,0.4c-0.3,0.3-0.3,0.6-0.3,1v7.2h-0.2L42,17.6v5.6c0,0.5,0.1,0.8,0.3,1s0.5,0.3,0.8,0.3h0.2v0.2h-3.1v-0.2
		c0.5,0,0.8-0.1,1-0.3c0.2-0.2,0.3-0.5,0.3-1V17l-0.2-0.2c-0.2-0.2-0.3-0.4-0.5-0.5c-0.1-0.1-0.3-0.1-0.6-0.1V16L43.3,15.9
		L43.3,15.9z"/>
	<path class="st0" d="M54.4,19.3l3,3.8c0.4,0.5,0.8,0.9,1.1,1.1c0.2,0.1,0.5,0.2,0.7,0.2v0.2h-4.5v-0.2c0.3,0,0.5-0.1,0.6-0.1
		c0.1-0.1,0.1-0.1,0.1-0.2c0-0.2-0.2-0.5-0.6-1l-2-2.5l-0.3,0.3v2.4c0,0.5,0,0.7,0.1,0.9c0.1,0.1,0.1,0.2,0.3,0.3
		c0.1,0.1,0.4,0.1,0.7,0.1v0.2h-4.4v-0.2h0.3c0.3,0,0.5,0,0.6-0.1s0.2-0.2,0.3-0.3c0-0.1,0.1-0.4,0.1-0.8v-5.7c0-0.4,0-0.7-0.1-0.8
		c0-0.1-0.1-0.2-0.3-0.3c-0.1-0.1-0.3-0.1-0.6-0.1h-0.3v-0.2h4.3v0.2c-0.3,0-0.5,0-0.7,0.1c-0.1,0.1-0.2,0.2-0.3,0.3
		c-0.1,0.1-0.1,0.4-0.1,0.8v2.7l3.2-2.6c0.4-0.4,0.7-0.7,0.7-0.9c0-0.2-0.1-0.3-0.3-0.4c-0.1,0-0.3-0.1-0.7-0.1v-0.2h3.4v0.2
		c-0.3,0-0.5,0.1-0.7,0.2s-0.6,0.4-1.2,0.9L54.4,19.3z"/>
</g>
</svg>
